<svg xmlns="http://www.w3.org/2000/svg" width="600" height="600" viewBox="0 0 600 600">
  <defs>
    <style>
      .cls-1 {
        fill-rule: evenodd;
      }
    </style>
  </defs>
  <path id="デ" class="cls-1" d="M204.127,76.243c-50.917,0-63.918-.542-86.126-4.333v91.542c23.833-2.166,38.459-2.708,84.5-2.708H346.586c60.126,1.083,63.376,1.083,79.626,2.708V74.618c10.834,20.042,21.667,46.584,31.417,80.168l46.584-16.792c-12.459-37.376-25.459-66.084-39.542-86.668L420.8,65.41c2.167,3.792,2.709,4.333,4.334,7.583-21.125,2.167-39.542,3.25-80.168,3.25H204.127ZM449.5,299.412c48.75,0,52.542,0,84.5,2.708V211.661c-22.209,3.25-36.292,3.792-86.126,3.792H146.168c-47.667,0-62.292-1.083-83.418-4.333v91c20.042-2.166,31.959-2.708,81.793-2.708H255.586c-4.876,86.667-48.751,135.96-146.252,164.127,30.334,28.708,44.959,48.75,63.376,85.584,72.584-28.709,117-62.834,145.168-109.96,24.375-40.083,35.208-78,39-139.751H449.5ZM569.755,114.16c-10.292-32.5-20.583-54.709-37.917-83.959l-42.25,14.625c15.708,26,27.083,52,37.917,86.126Z"/>
</svg>
