<svg xmlns="http://www.w3.org/2000/svg" width="600" height="600" viewBox="0 0 600 600">
  <defs>
    <style>
      .cls-1 {
        fill-rule: evenodd;
      }
    </style>
  </defs>
  <path id="ã‘" class="cls-1" d="M226.335,257.162c16.792,0,16.792,0,34.667,1.083,18.959,1.083,36.292,1.625,56.876,1.625,23.292,0,36.833-.542,57.959-2.167v6.5c0,63.376-3.792,95.335-14.084,121.335-15.708,39-51.459,71.5-107.792,95.876,31.417,23.292,49.292,40.625,74.209,72.042C383.42,521.5,410.5,496.039,434.337,454.33c21.125-36.292,31.959-91,31.959-160.335,0-12.458,0-17.875-.542-43.875,26-2.708,27.084-3.25,46.584-7.042,18.958-3.25,22.209-3.792,31.417-4.875l-4.875-90.459c-22.209,8.667-44.417,14.083-75.834,18.417-1.084-39-1.625-64.459-2.167-74.751a85.345,85.345,0,0,1-.542-10.292c0-5.958.542-10.292,1.625-20.584l-96.417,1.083c4.333,19.5,4.333,20.584,8.125,112.668-15.709,1.625-29.25,2.167-49.292,2.167-39,0-69.876-2.709-97.5-7.584ZM103.917,67.035c0,14.084-.541,22.209-3.25,42.792-16.25,116.459-18.416,141.918-18.416,201.5,0,57.417,5.417,120.251,15.167,171.71,5.959,31.417,5.959,31.417,7.584,42.792l87.209-3.25c3.25-46.042,33.584-127.835,68.792-184.71l-63.375-31.417A393.358,393.358,0,0,0,170,373.079c-0.541-15.166-.541-20.041-0.541-20.041,0-50.376,1.625-91,5.416-124.585,5.959-56.876,15.167-107.251,28.709-153.835Z"/>
</svg>
