<svg xmlns="http://www.w3.org/2000/svg" width="600" height="600" viewBox="0 0 600 600">
  <defs>
    <style>
      .cls-1 {
        fill-rule: evenodd;
      }
    </style>
  </defs>
  <path id="る" class="cls-1" d="M130.459,163.452c10.834-1.083,21.126-2.166,35.751-2.708,76.375-3.792,98.042-4.875,126.751-8.125C225.794,219.245,111.5,308.079,61.667,331.371l50.376,82.334q26.813-24.375,52-40.626c48.75-31.958,109.418-49.833,166.835-49.833,60.125,0,96.959,23.291,96.959,61.208,0,27.626-13.542,46.043-42.792,59.043-8.125-20.042-14.083-30.876-24.917-42.792C336.836,374.163,302.169,359,263.169,359c-62.834,0-107.793,36.292-107.793,86.667,0,60.126,55.792,96.418,147.335,96.418,54.167,0,106.168-12.459,143.543-34.125,49.292-29.251,74.751-72.584,74.751-127.293,0-39-13.542-70.418-39.542-93.709-28.709-24.917-65-36.834-115.918-36.834-28.167,0-43.876,2.167-74.209,9.75,36.292-26.542,46.042-34.667,74.751-59.042,73.125-62.834,73.125-62.834,87.209-70.959L408.879,64.326c-10.292,4.333-17.334,5.958-41.167,7.583-54.709,4.333-114.835,6.5-163.044,6.5-35.208,0-55.25-1.083-78-3.792Zm173.877,304.42c-10.292,1.625-11.375,1.625-17.875,1.625-29.25,0-46.584-9.208-46.584-23.834,0-10.833,8.667-17.875,21.125-17.875C282.127,427.788,297.294,441.872,304.336,467.872Z"/>
</svg>
