<svg xmlns="http://www.w3.org/2000/svg" width="600" height="600" viewBox="0 0 600 600">
  <defs>
    <style>
      .cls-1 {
        fill-rule: evenodd;
      }
    </style>
  </defs>
  <path id="動" class="cls-1" d="M452.754,148.286c1.083-85.043,1.083-85.043,3.792-100.21H370.42c2.708,12.458,3.25,24.375,3.25,49.292v50.918h-7.042c-14.083,0-20.583-.542-28.708-1.625V132.035c-13.542,1.625-24.917,2.167-52,2.167h-52V114.16c47.125-4.333,53.625-4.875,71.5-7.041,10.292-1.626,10.292-1.626,16.792-2.167l8.125-.542c3.792-.542,4.875-0.542,7.584-1.083L297.294,42.118c-32.5,13-126.209,21.125-245.919,22.209C63.834,86.535,69.251,99.535,76.292,121.2c17.334-.542,46.584-1.083,87.209-2.708V134.2H103.376c-24.376,0-36.292-.542-52.542-2.167v63.918c15.709-1.625,29.25-2.167,52.542-2.167H163.5v15.708H120.168c-24.917,0-39-.541-55.251-1.625,1.625,15.167,2.167,26,2.167,50.376v71.5c0,24.917-.542,37.375-2.167,51.458,16.792-1.083,28.709-1.083,55.251-1.083H163.5v16.25H112.043c-26,0-37.376-.541-53.084-2.166v60.667c17.333-1.084,33.584-1.625,52.542-1.625h52V473.83c-34.667,1.084-49.833,1.084-72.042,1.084-26,0-33.042,0-44.959-1.084l11.917,75.834c15.709-1.625,26-2.708,35.75-3.25,107.251-7.041,122.96-8.125,232.378-18.958,13,13.542,17.333,18.417,28.708,33.583,22.209-30.875,30.334-43.875,43.334-70.959,5.417,20.584,8.125,34.667,9.208,60.126,7.042,0.542,13,.542,16.792.542,63.376,0,83.418-5.959,96.959-29.792,15.709-27.084,23.292-107.251,25.459-267.586,1.083-83.418,1.083-83.418,3.25-107.251-15.167,1.625-28.167,2.167-53.084,2.167H452.754ZM233.919,453.247h63.917c11.917,0,18.958.541,26,1.625-3.25,5.417-4.333,6.5-7.583,11.917-43.334,3.25-43.334,3.25-82.334,4.875V453.247Zm94.792-58.5c-14.625,1.084-24.917,1.625-52.542,1.625h-42.25v-16.25h48.75c27.625,0,33.584,0,47.126.542-0.542-13-1.084-27.084-1.084-47.126v-78c0-27.084,0-35.209,1.625-47.126-11.375,1.083-17.875,1.083-43.333,1.083H233.919V193.786h69.875c21.667,0,26,0,34.126,1.625v31.417a320.5,320.5,0,0,1,34.125-1.625c-5.417,112.668-16.792,171.71-43.334,221.544v-52ZM473.879,225.2c-3.791,126.209-5.958,160.876-11.375,200.419-5.417,41.167-9.75,47.667-31.958,47.667a164.387,164.387,0,0,1-23.834-2.167c26.542-63.917,39.542-136.5,43.875-245.919h23.292ZM163.5,255.537v18.416H134.793V255.537H163.5Zm70.418,0h28.708v18.416H233.919V255.537ZM163.5,315.12v19.5H134.793v-19.5H163.5Zm70.418,0h28.708v19.5H233.919v-19.5Z"/>
</svg>
