<svg xmlns="http://www.w3.org/2000/svg" width="600" height="600" viewBox="0 0 600 600">
  <defs>
    <style>
      .cls-1 {
        fill-rule: evenodd;
      }
    </style>
  </defs>
  <path id="ブ" class="cls-1" d="M476.588,137.994l22.75-7.584c-13-35.208-28.709-64.458-46.042-86.667L404,58.368c10.291,14.083,15.708,22.75,22.208,35.75l2.167,3.792,1.083,1.625c-8.125,1.083-22.75,1.625-41.709,1.625H154.835c-48.751,0-62.834-1.083-83.959-4.333v96.959c20.042-2.708,30.876-3.25,82.335-3.25H386.128C357.42,315.12,258.294,412.08,113.668,457.58c36.292,35.751,48.75,52,68.792,91C353.628,472.205,446.8,364.954,492.3,192.7c2.167-7.584,3.25-12.459,3.792-14.084a91.959,91.959,0,0,1,3.792-11.375ZM482.546,43.2c19.5,28.709,28.709,46.584,42.25,83.418l44.959-15.709c-9.75-31.958-22.75-56.875-42.25-81.792Z"/>
</svg>
